<!-- Generated by tools/build.py from tokens.json: the lockup on the dark ground, the mark in its accent and the wordmark in its text colour. -->
<svg xmlns="http://www.w3.org/2000/svg" viewBox="0 0 80.02 14" role="img" aria-label="Agentiik"><g fill="#4FBFAC"><rect x="0" y="0" width="16" height="4" rx="1"/><g opacity="0.62"><rect x="0" y="6" width="7" height="4" rx="1"/><rect x="9" y="6" width="7" height="4" rx="1"/></g><g opacity="0.3"><rect x="0" y="12" width="16" height="2" rx="1"/></g></g><path fill="#E4EAE3" transform="translate(25 0)" d="M3.045 11.18Q2.655 11.18 2.212 11.09Q1.77 11 1.38 10.768Q0.99 10.535 0.742 10.093Q0.495 9.65 0.495 8.96Q0.495 8.135 0.855 7.595Q1.215 7.055 1.882 6.748Q2.55 6.44 3.48 6.32Q4.41 6.2 5.535 6.2V5.615Q5.535 5.27 5.422 5.015Q5.31 4.76 5.032 4.61Q4.755 4.46 4.26 4.46Q3.765 4.46 3.457 4.58Q3.15 4.7 3.022 4.888Q2.895 5.075 2.895 5.3V5.48H0.87Q0.855 5.405 0.855 5.338Q0.855 5.27 0.855 5.165Q0.855 4.475 1.275 3.973Q1.695 3.47 2.46 3.2Q3.225 2.93 4.245 2.93Q5.34 2.93 6.082 3.215Q6.825 3.5 7.223 4.055Q7.62 4.61 7.62 5.45V9.035Q7.62 9.305 7.777 9.433Q7.935 9.56 8.13 9.56H8.625V10.925Q8.475 11 8.16 11.082Q7.845 11.165 7.395 11.165Q6.96 11.165 6.623 11.037Q6.285 10.91 6.06 10.678Q5.835 10.445 5.745 10.115H5.64Q5.385 10.43 5.018 10.67Q4.65 10.91 4.162 11.045Q3.675 11.18 3.045 11.18ZM3.75 9.605Q4.17 9.605 4.5 9.477Q4.83 9.35 5.055 9.133Q5.28 8.915 5.407 8.6Q5.535 8.285 5.535 7.925V7.49Q4.695 7.49 4.035 7.603Q3.375 7.715 2.992 7.985Q2.61 8.255 2.61 8.735Q2.61 9.005 2.745 9.2Q2.88 9.395 3.135 9.5Q3.39 9.605 3.75 9.605ZM10.65 13.82Q10.125 13.82 9.66 13.602Q9.195 13.385 8.91 12.965Q8.625 12.545 8.625 11.96Q8.625 11.3 9.008 10.902Q9.39 10.505 9.87 10.31Q9.525 10.115 9.308 9.8Q9.09 9.485 9.09 9.065Q9.09 8.48 9.518 8.113Q9.945 7.745 10.5 7.64Q9.945 7.295 9.637 6.763Q9.33 6.23 9.33 5.57Q9.33 4.715 9.758 4.13Q10.185 3.545 10.988 3.237Q11.79 2.93 12.885 2.93Q13.32 2.93 13.703 2.975Q14.085 3.02 14.4 3.125Q14.955 2.795 15.157 2.397Q15.36 2 15.375 1.76H17.31Q17.31 2.315 17.108 2.72Q16.905 3.125 16.53 3.388Q16.155 3.65 15.63 3.77Q16.02 4.1 16.23 4.565Q16.44 5.03 16.44 5.57Q16.44 6.41 16.035 7.003Q15.63 7.595 14.887 7.91Q14.145 8.225 13.11 8.225H11.91Q11.55 8.225 11.37 8.352Q11.19 8.48 11.19 8.72Q11.19 8.915 11.348 9.057Q11.505 9.2 11.865 9.2H15.15Q16.14 9.2 16.733 9.807Q17.325 10.415 17.325 11.36Q17.325 12.08 16.95 12.635Q16.575 13.19 15.915 13.505Q15.255 13.82 14.4 13.82ZM11.52 12.425H14.295Q14.565 12.425 14.775 12.328Q14.985 12.23 15.105 12.058Q15.225 11.885 15.225 11.66Q15.225 11.27 14.985 11.075Q14.745 10.88 14.385 10.88H11.52Q11.16 10.88 10.928 11.09Q10.695 11.3 10.695 11.645Q10.695 11.99 10.928 12.207Q11.16 12.425 11.52 12.425ZM12.885 6.875Q13.62 6.875 14.003 6.537Q14.385 6.2 14.385 5.57Q14.385 4.94 14.003 4.603Q13.62 4.265 12.885 4.265Q12.165 4.265 11.782 4.603Q11.4 4.94 11.4 5.57Q11.4 5.975 11.565 6.275Q11.73 6.575 12.06 6.725Q12.39 6.875 12.885 6.875ZM21.75 11.18Q20.445 11.18 19.56 10.738Q18.675 10.295 18.225 9.38Q17.775 8.465 17.775 7.055Q17.775 5.63 18.225 4.723Q18.675 3.815 19.552 3.373Q20.43 2.93 21.705 2.93Q22.905 2.93 23.73 3.357Q24.555 3.785 24.975 4.678Q25.395 5.57 25.395 6.98V7.52H19.89Q19.92 8.21 20.107 8.69Q20.295 9.17 20.692 9.402Q21.09 9.635 21.75 9.635Q22.11 9.635 22.402 9.545Q22.695 9.455 22.905 9.275Q23.115 9.095 23.235 8.825Q23.355 8.555 23.355 8.21H25.395Q25.395 8.96 25.125 9.515Q24.855 10.07 24.375 10.438Q23.895 10.805 23.227 10.992Q22.56 11.18 21.75 11.18ZM19.92 6.2H23.25Q23.25 5.75 23.137 5.42Q23.025 5.09 22.83 4.88Q22.635 4.67 22.357 4.572Q22.08 4.475 21.735 4.475Q21.165 4.475 20.782 4.663Q20.4 4.85 20.197 5.232Q19.995 5.615 19.92 6.2ZM26.625 11V3.11H28.35L28.515 4.19H28.62Q28.89 3.8 29.273 3.515Q29.655 3.23 30.135 3.08Q30.615 2.93 31.185 2.93Q31.965 2.93 32.55 3.215Q33.135 3.5 33.457 4.115Q33.78 4.73 33.78 5.72V11H31.695V6.05Q31.695 5.675 31.605 5.412Q31.515 5.15 31.343 4.978Q31.17 4.805 30.915 4.73Q30.66 4.655 30.345 4.655Q29.88 4.655 29.505 4.88Q29.13 5.105 28.92 5.495Q28.71 5.885 28.71 6.395V11ZM37.71 11.18Q36.96 11.18 36.495 10.91Q36.03 10.64 35.82 10.183Q35.61 9.725 35.61 9.17V4.715H34.635V3.11H35.685L36.075 0.86H37.695V3.11H39.135V4.715H37.695V8.825Q37.695 9.185 37.86 9.373Q38.025 9.56 38.4 9.56H39.135V10.94Q38.955 11 38.715 11.053Q38.475 11.105 38.205 11.143Q37.935 11.18 37.71 11.18ZM40.185 1.955V0.155H42.27V1.955ZM40.185 11V3.11H42.27V11ZM43.89 1.955V0.155H45.975V1.955ZM43.89 11V3.11H45.975V11ZM47.595 11V0.14H49.68V6.395L52.44 3.11H54.885L52.185 6.2L55.02 11H52.635L50.82 7.67L49.68 8.78V11Z"/></svg>
